# xmcd CD database file
# Copyright (C) 1993-1998 Ti Kan
#
# Track frame offsets:
#	192
#	19972
#	36242
#	50342
#	71515
#	87940
#	103020
#	123307
#	143135
#	162295
#	181482
#	203877
#
# Disc length: 3066 seconds
#
# Revision: 1
# Processed by: cddbd v1.4b41PL1 Copyright (c) Steve Scherf et al.
# Submitted via: CDValet v3.31 - Copyright (c) 1997 Greg Leichner
#
DISCID=a60bf80c
DTITLE=Piazza and the Mighty Flyers, Rod - Alphabet Blues
DYEAR=1900
DGENRE=
TTITLE0=Alphabet Blues
TTITLE1=So Glad To Have The Blues
TTITLE2=The Bounce
TTITLE3=Blues In '92
TTITLE4=Somebody
TTITLE5=Hydramatic Woman
TTITLE6=Tangled With A Woman
TTITLE7=Come On Home
TTITLE8=No Pretty Presents
TTITLE9=Can't Get That Stuff No More
TTITLE10=Skin Deep
TTITLE11=Night's End
EXTD=
EXTT0=
EXTT1=
EXTT2=
EXTT3=
EXTT4=
EXTT5=
EXTT6=
EXTT7=
EXTT8=
EXTT9=
EXTT10=
EXTT11=
PLAYORDER=
